<?xml version="1.0" encoding="UTF-8" standalone="no"?>
<!DOCTYPE svg PUBLIC "-//W3C//DTD SVG 1.1//EN" "http://www.w3.org/Graphics/SVG/1.1/DTD/svg11.dtd">
<svg width="100%" height="100%" viewBox="0 0 512 384" version="1.1" xmlns="http://www.w3.org/2000/svg" xmlns:xlink="http://www.w3.org/1999/xlink" xml:space="preserve" xmlns:serif="http://www.serif.com/" style="fill-rule:evenodd;clip-rule:evenodd;stroke-linejoin:round;stroke-miterlimit:2;">
    <g transform="matrix(6.12323e-17,1,-1,6.12323e-17,512,-2.84217e-14)">
        <path d="M342.6,374.6L214.6,502.6C208.4,508.9 200.2,512 191.1,512C182,512 174.72,508.875 168.47,502.625L41.37,374.625C28.87,362.125 28.87,341.875 41.37,329.375C53.87,316.875 74.12,316.875 86.62,329.375L160,402.8L160,80C160,71.19 152.8,64 144,64L32,64C14.33,64 0,49.69 0,32C0,14.31 14.33,0 32,0L144,0C188.1,0 224,35.88 224,80L224,402.8L297.37,329.42C309.87,316.92 330.12,316.92 342.62,329.42C355.12,341.92 355.1,362.1 342.6,374.6Z" style="fill-rule:nonzero;"/>
    </g>
</svg>
